<?xml version="1.0" encoding="UTF-8"?>
<!DOCTYPE svg PUBLIC "-//W3C//DTD SVG 1.1//EN" "http://www.w3.org/Graphics/SVG/1.1/DTD/svg11.dtd">
<!-- Creator: CorelDRAW -->
<svg xmlns="http://www.w3.org/2000/svg" xml:space="preserve" width="274px" height="65px" version="1.1" style="shape-rendering:geometricPrecision; text-rendering:geometricPrecision; image-rendering:optimizeQuality; fill-rule:evenodd; clip-rule:evenodd"
viewBox="0 0 274 65"
 xmlns:xlink="http://www.w3.org/1999/xlink"
 xmlns:xodm="http://www.corel.com/coreldraw/odm/2003">
 <defs>
  <style type="text/css">
   <![CDATA[
    .str2 {stroke:#1698D4;stroke-width:2.36;stroke-miterlimit:22.9256}
    .str0 {stroke:#0471B5;stroke-width:2.36;stroke-miterlimit:22.9256}
    .str1 {stroke:#0C6DB3;stroke-width:2.36;stroke-miterlimit:22.9256}
    .fil2 {fill:#FFCC29}
    .fil0 {fill:#5CC6D0}
    .fil1 {fill:#1698D4}
    .fil4 {fill:#0471B5}
    .fil5 {fill:#0C6DB3}
    .fil3 {fill:#1698D4;fill-rule:nonzero}
    .fil6 {fill:black;fill-rule:nonzero}
   ]]>
  </style>
 </defs>
 <g id="Capa_x0020_1">
  <metadata id="CorelCorpID_0Corel-Layer"/>
  <path class="fil0" d="M28.36 49.14c0.12,0.06 1.53,-0.47 1.92,-0.58 7.23,-2.03 13.18,-0.72 20.07,1.5 3.78,1.21 8,2.9 11.75,4.02 1.34,0.4 2.78,0.78 4.19,1.05 2.15,0.41 2.58,0.39 4.69,0.55 2.85,0.23 10.74,-1.27 13.45,-2.31 1.3,-0.5 2.4,-1.12 3.56,-1.69 1.73,-0.84 3.41,-1.76 5.24,-2.62 0.62,-0.29 1.21,-0.58 1.82,-0.85 -0.07,-0.04 0.14,-0.15 -0.43,0.06l-1.48 0.49c-3.32,1.07 -8.32,2.17 -11.79,2.27 -0.39,0.01 -0.92,0.01 -1.3,0.04 -1.87,0.16 -5.4,-0.18 -7.18,-0.4 -2.06,-0.26 -4.07,-0.77 -6.07,-1.29 -0.68,-0.18 -1.35,-0.38 -2,-0.56 -2.6,-0.73 -5.33,-1.75 -7.85,-2.47 -2.98,-0.85 -5.06,-1.57 -8.24,-2.03 -3.24,-0.46 -6.3,-0.48 -9.49,0.19 -1.39,0.3 -2.68,0.67 -4.02,1.17 -2.1,0.77 -4.15,1.81 -6.04,2.96 -0.25,0.15 -0.61,0.34 -0.8,0.5z"/>
  <path class="fil1" d="M20.13 55.5l1.95 -0.63c4.08,-1.19 9.26,-1.27 13.47,-0.28l3.83 0.96c7.1,2 16.25,6.5 23.62,6.46 1.81,-0.01 2.61,-0.01 4.48,-0.38 3.03,-0.59 6.35,-0.93 9.17,-2.13 1.75,-0.75 3.32,-1.66 5.03,-2.5 1.23,-0.6 2.51,-1.29 3.76,-1.86 0.21,-0.1 1.17,-0.5 1.25,-0.63 -1.18,0.56 -5.64,1.73 -6.82,1.96 -1.25,0.24 -2.4,0.46 -3.74,0.63 -0.61,0.07 -1.29,0.14 -1.96,0.21 -0.95,0.11 -2.52,0.13 -3.52,0.13 -1.4,0 -2.01,0 -3.5,-0.15 -3.24,-0.31 -5.28,-0.68 -8.39,-1.49 -3.31,-0.85 -6.29,-1.83 -9.51,-2.89 -3.97,-1.3 -8.6,-2.55 -12.83,-2.55 -3.69,0 -6.37,0.55 -9.53,1.7 -1.26,0.47 -2.39,1 -3.56,1.57 -0.46,0.22 -3.11,1.64 -3.2,1.87z"/>
  <path class="fil1" d="M70.12 19.43c0.1,0.17 0.25,0.23 0.51,0.46l0.97 0.88c0.56,0.56 1.06,0.97 1.62,1.66l1.12 1.29c0.75,0.95 1.27,1.78 1.9,2.84 0.14,0.22 0.56,1.1 0.69,1.2 0.21,-0.19 4.01,-8.65 5.02,-10.79 0.08,-0.18 0.28,-0.58 0.32,-0.78 -0.35,0.01 -2.55,0.64 -3.06,0.77l-6.04 1.6c-0.52,0.13 -1.04,0.26 -1.52,0.4l-1.42 0.38c-0.14,0.08 -0.02,-0.01 -0.11,0.09z"/>
  <path class="fil1" d="M50.86 14.63l2.87 -0.3c1.02,-0.06 1.92,-0.07 2.78,-0.04 1.61,0.04 3.41,0.21 4.96,0.61 0.95,0.25 0.81,0.46 -0.6,-2.67 -0.43,-0.95 -0.85,-1.89 -1.28,-2.82 -0.44,-0.93 -0.82,-1.87 -1.28,-2.81 -0.27,-0.55 -1.1,-2.46 -1.31,-2.77 -0.15,0.06 -0.66,1.06 -0.79,1.27l-1.53 2.73c-0.27,0.42 -0.52,0.9 -0.76,1.36l-2.3 4.04c-0.25,0.45 -0.57,0.96 -0.76,1.4z"/>
  <path class="fil1" d="M22.19 37.34c0.21,0.27 5.68,2.9 6.88,3.54l2.77 1.42c0.37,0.18 1.12,0.62 1.48,0.7l-0.35 -2.43c-0.18,-1.56 -0.15,-2.56 -0.15,-4.05 0,-1.56 0.33,-3.11 0.6,-4.53 -0.26,0.01 -5.04,2.34 -5.64,2.65 -0.71,0.38 -5.41,2.55 -5.59,2.7z"/>
  <path class="fil1" d="M35.66 25.64c0.13,-0.13 0.23,-0.34 0.37,-0.54 0.83,-1.16 1.08,-1.53 2,-2.69 0.83,-1.04 1.84,-1.96 2.83,-2.85l0.52 -0.41c0.53,-0.44 0.84,-0.63 1.36,-0.98 0.16,-0.12 0.2,-0.13 0.24,-0.27 -0.16,-0.17 -2.71,-0.91 -2.96,-0.98l-2.24 -0.71c-0.66,-0.22 -6.5,-2.1 -6.86,-2.13 0.03,0.31 3.27,8.13 3.51,8.7 0.22,0.5 1,2.67 1.23,2.86z"/>
  <path class="fil1" d="M77.93 45.52c0.25,0.05 0.5,-0.12 0.73,-0.22 0.26,-0.12 0.47,-0.2 0.72,-0.32 1.27,-0.62 2.87,-1.3 4.21,-1.91 0.45,-0.2 0.91,-0.4 1.4,-0.61 0.46,-0.2 0.95,-0.45 1.43,-0.64 0.46,-0.19 0.94,-0.43 1.4,-0.62 0.26,-0.12 0.46,-0.21 0.71,-0.33 0.46,-0.2 0.58,-0.2 0.71,-0.36 -0.08,-0.1 0,-0.03 -0.13,-0.12l-2.57 -1.42c-1.75,-0.93 -3.75,-2.1 -5.44,-2.97 -0.46,-0.23 -0.88,-0.51 -1.34,-0.73 -0.33,-0.17 -1.09,-0.7 -1.41,-0.73 0.51,2.78 0.56,8.18 -0.42,10.98z"/>
  <path class="fil2" d="M67.38 18.78c1.34,0.85 2.39,1.9 3.55,3.01 0.15,0.14 0.21,0.27 0.37,0.44 0.16,0.16 0.25,0.27 0.39,0.43 2.78,3.13 4.87,8.18 5.48,12.53 0.29,1.99 0.36,4.09 0.21,6.16 -0.08,1.07 -0.55,4.79 -0.96,5.53 -2.13,0.43 -4.4,0.27 -6.48,0.01 -0.86,-0.13 -1.06,-0.14 -1.82,-0.3 -0.13,-0.04 -1.07,-0.31 -1.36,-0.4 -0.45,-0.09 -1.23,-0.29 -1.62,-0.41l-0.61 -0.16c-0.31,-0.1 -0.53,-0.17 -0.84,-0.26 -0.27,-0.08 -0.57,-0.17 -0.78,-0.27 -0.3,-0.1 -0.74,-0.27 -1.06,-0.42 -0.71,-0.29 -1.28,-0.5 -2.35,-0.75 -0.71,-0.16 -1.64,-0.48 -2.31,-0.74 -0.25,-0.02 -3.35,-0.81 -3.5,-0.86 -0.9,-0.31 -1.11,-0.32 -1.69,-0.42 -0.39,-0.09 -0.65,-0.2 -1.09,-0.32 -0.41,-0.09 -1.04,-0.16 -1.45,-0.21 -0.51,-0.07 -0.98,-0.16 -1.43,-0.21 -0.55,-0.06 -1.16,-0.07 -1.68,-0.09 -1,-0.03 -1.05,-0.02 -1.9,-0.02 -0.37,0 -1.06,0.01 -1.51,0 -0.35,0.03 -0.77,0.04 -1.17,0.12 -0.77,0.05 -5.05,1.17 -5.72,1.49 -0.39,0.18 -1.35,0.57 -1.79,0.56 -0.19,-0.82 -0.25,-2.07 -0.28,-2.97 -0.08,-3.07 0.21,-5.82 1.1,-8.71 0.5,-1.64 1.12,-3.25 1.9,-4.65 0.82,-1.45 1.99,-3.26 3.01,-4.37 0.16,-0.17 0.23,-0.26 0.39,-0.42l0.8 -0.84c0.31,-0.27 0.53,-0.5 0.85,-0.79 1.38,-1.27 3.05,-2.37 4.9,-3.29 3.05,-1.53 6.89,-2.36 10.86,-1.9 3.75,0.43 6.56,1.57 9.59,3.5z"/>
  <path class="fil3" d="M103.33 23.72l0.31 -1.71 9.55 0c0.61,0 1.07,-0.1 1.37,-0.3 0.31,-0.2 0.5,-0.52 0.59,-0.95 0.05,-0.25 0.09,-0.45 0.12,-0.61 0.03,-0.16 0.05,-0.29 0.06,-0.38 0.02,-0.09 0.02,-0.16 0.03,-0.21 0.01,-0.04 0.01,-0.08 0.01,-0.12 0,-0.29 -0.11,-0.5 -0.32,-0.62 -0.22,-0.12 -0.62,-0.18 -1.2,-0.18l-6.19 0c-1.09,0 -1.85,-0.16 -2.27,-0.48 -0.43,-0.32 -0.65,-0.8 -0.65,-1.45 0,-0.14 0.02,-0.31 0.04,-0.51 0.02,-0.2 0.08,-0.51 0.16,-0.93 0.13,-0.59 0.29,-1.09 0.49,-1.5 0.2,-0.4 0.46,-0.74 0.77,-0.99 0.31,-0.26 0.69,-0.44 1.14,-0.56 0.44,-0.11 0.96,-0.17 1.56,-0.17l3.94 0 -0.33 1.71 -3.79 0c-0.55,0 -0.96,0.11 -1.23,0.33 -0.27,0.21 -0.46,0.61 -0.58,1.18 -0.08,0.35 -0.12,0.59 -0.14,0.73 -0.02,0.13 -0.03,0.23 -0.03,0.29 0,0.3 0.1,0.49 0.28,0.58 0.19,0.08 0.54,0.13 1.06,0.13l6.08 0c1.14,0 1.95,0.16 2.46,0.48 0.49,0.33 0.75,0.85 0.75,1.57 0,0.07 -0.01,0.14 -0.01,0.21 -0.01,0.08 -0.02,0.18 -0.04,0.3 -0.02,0.13 -0.05,0.29 -0.08,0.48 -0.04,0.2 -0.08,0.44 -0.13,0.72 -0.1,0.54 -0.25,0.99 -0.45,1.36 -0.2,0.37 -0.47,0.68 -0.81,0.92 -0.33,0.24 -0.74,0.41 -1.22,0.52 -0.48,0.11 -1.06,0.16 -1.73,0.16l-9.57 0z"/>
  <path id="_1" class="fil3" d="M122.97 23.72c-0.74,0 -1.38,-0.04 -1.89,-0.13 -0.52,-0.1 -0.95,-0.24 -1.28,-0.45 -0.33,-0.21 -0.57,-0.47 -0.71,-0.8 -0.15,-0.33 -0.22,-0.73 -0.22,-1.2 0,-0.1 0,-0.23 0.02,-0.37 0.01,-0.15 0.04,-0.4 0.1,-0.75 0.05,-0.35 0.14,-0.83 0.25,-1.45 0.12,-0.62 0.27,-1.46 0.47,-2.5 0.14,-0.73 0.33,-1.35 0.58,-1.87 0.25,-0.51 0.58,-0.92 1,-1.23 0.43,-0.32 0.95,-0.55 1.58,-0.69 0.63,-0.14 1.4,-0.21 2.3,-0.21l4.65 0c0.75,0 1.38,0.05 1.9,0.14 0.52,0.1 0.94,0.25 1.27,0.46 0.33,0.2 0.57,0.47 0.72,0.79 0.14,0.32 0.22,0.72 0.22,1.19 0,0.1 -0.01,0.23 -0.03,0.37 -0.02,0.15 -0.05,0.4 -0.11,0.75 -0.05,0.35 -0.14,0.83 -0.25,1.45 -0.11,0.62 -0.26,1.46 -0.46,2.5 -0.13,0.75 -0.32,1.37 -0.57,1.87 -0.25,0.51 -0.59,0.92 -1.01,1.23 -0.42,0.32 -0.95,0.55 -1.58,0.69 -0.63,0.14 -1.39,0.21 -2.3,0.21l-4.65 0zm7.97 -4c0.18,-1.02 0.33,-1.82 0.44,-2.42 0.11,-0.59 0.19,-1.04 0.25,-1.36 0.05,-0.31 0.09,-0.53 0.1,-0.65 0.01,-0.12 0.02,-0.21 0.02,-0.28 0,-0.49 -0.17,-0.82 -0.51,-0.98 -0.33,-0.17 -0.92,-0.25 -1.75,-0.25l-4.66 0c-0.53,0 -0.96,0.04 -1.31,0.11 -0.35,0.07 -0.64,0.2 -0.86,0.38 -0.22,0.17 -0.39,0.41 -0.52,0.7 -0.13,0.29 -0.23,0.65 -0.32,1.08 -0.2,1.04 -0.35,1.87 -0.46,2.47 -0.11,0.6 -0.19,1.07 -0.25,1.39 -0.05,0.33 -0.09,0.56 -0.1,0.68 -0.01,0.13 -0.02,0.23 -0.02,0.31 0,0.24 0.04,0.43 0.11,0.58 0.08,0.15 0.2,0.26 0.38,0.33 0.18,0.08 0.41,0.13 0.71,0.16 0.29,0.03 0.65,0.04 1.08,0.04l4.66 0c0.49,0 0.91,-0.03 1.25,-0.1 0.34,-0.07 0.63,-0.19 0.86,-0.36 0.23,-0.17 0.42,-0.41 0.56,-0.7 0.14,-0.3 0.25,-0.68 0.34,-1.13z"/>
  <path id="_2" class="fil3" d="M139.11 23.72c-0.74,0 -1.37,-0.04 -1.89,-0.13 -0.52,-0.1 -0.95,-0.24 -1.28,-0.45 -0.33,-0.21 -0.57,-0.47 -0.71,-0.8 -0.15,-0.33 -0.22,-0.73 -0.22,-1.2 0,-0.41 0.05,-0.89 0.16,-1.42l1.45 -7.67 2.13 0 -1.45 7.67c-0.08,0.34 -0.11,0.64 -0.11,0.9 0,0.27 0.04,0.49 0.13,0.66 0.08,0.18 0.22,0.32 0.41,0.43 0.19,0.11 0.44,0.19 0.74,0.23 0.31,0.05 0.69,0.07 1.14,0.07l7.34 0 -0.31 1.71 -7.53 0z"/>
  <path id="_3" class="fil3" d="M161.56 20.83l-9.35 0 -2.49 2.89 -2.55 0 9.62 -10.99c0.22,-0.26 0.46,-0.47 0.73,-0.64 0.27,-0.16 0.63,-0.24 1.07,-0.24 0.42,0 0.74,0.08 0.95,0.24 0.21,0.17 0.38,0.38 0.51,0.64l5.44 10.99 -2.49 0 -1.44 -2.89zm-7.96 -1.61l7.19 0 -2.61 -5.27 -4.58 5.27z"/>
  <path id="_4" class="fil3" d="M177.3 23.72l-7.62 -4.26 -0.79 4.26 -2.1 0 2.2 -11.67 9.74 0c0.68,0 1.27,0.03 1.79,0.1 0.52,0.06 0.95,0.18 1.3,0.35 0.34,0.18 0.6,0.42 0.78,0.73 0.17,0.31 0.26,0.71 0.26,1.2 0,0.16 -0.01,0.36 -0.04,0.61 -0.04,0.24 -0.11,0.65 -0.21,1.22 -0.14,0.66 -0.34,1.21 -0.61,1.65 -0.28,0.44 -0.64,0.79 -1.09,1.06 -0.45,0.26 -0.99,0.44 -1.63,0.55 -0.63,0.11 -1.37,0.16 -2.21,0.16l-3.19 0 7.51 4.04 -4.09 0zm3.2 -7.46c0.05,-0.26 0.09,-0.48 0.12,-0.66 0.03,-0.17 0.05,-0.32 0.07,-0.43 0.02,-0.1 0.03,-0.19 0.04,-0.26 0,-0.07 0.01,-0.13 0.01,-0.19 0,-0.22 -0.04,-0.39 -0.11,-0.52 -0.08,-0.13 -0.2,-0.23 -0.38,-0.3 -0.18,-0.07 -0.41,-0.12 -0.7,-0.14 -0.3,-0.02 -0.66,-0.03 -1.1,-0.03l-7.68 0 -0.81 4.36 7.42 0c0.56,0 1.03,-0.03 1.41,-0.09 0.37,-0.06 0.67,-0.17 0.89,-0.31 0.23,-0.14 0.4,-0.33 0.52,-0.57 0.13,-0.23 0.22,-0.52 0.3,-0.86z"/>
  <polygon id="_5" class="fil3" points="183.26,23.72 185.46,12.05 187.59,12.05 185.39,23.72 "/>
  <path id="_6" class="fil3" d="M187.29 23.72l0.32 -1.71 9.54 0c0.61,0 1.07,-0.1 1.37,-0.3 0.31,-0.2 0.51,-0.52 0.59,-0.95 0.05,-0.25 0.09,-0.45 0.12,-0.61 0.03,-0.16 0.05,-0.29 0.06,-0.38 0.02,-0.09 0.03,-0.16 0.03,-0.21 0.01,-0.04 0.01,-0.08 0.01,-0.12 0,-0.29 -0.11,-0.5 -0.32,-0.62 -0.21,-0.12 -0.61,-0.18 -1.2,-0.18l-6.19 0c-1.09,0 -1.85,-0.16 -2.27,-0.48 -0.43,-0.32 -0.64,-0.8 -0.64,-1.45 0,-0.14 0.01,-0.31 0.03,-0.51 0.03,-0.2 0.08,-0.51 0.17,-0.93 0.12,-0.59 0.28,-1.09 0.48,-1.5 0.2,-0.4 0.46,-0.74 0.77,-0.99 0.31,-0.26 0.69,-0.44 1.14,-0.56 0.44,-0.11 0.97,-0.17 1.56,-0.17l3.94 0 -0.33 1.71 -3.79 0c-0.55,0 -0.96,0.11 -1.23,0.33 -0.27,0.21 -0.46,0.61 -0.58,1.18 -0.08,0.35 -0.12,0.59 -0.14,0.73 -0.02,0.13 -0.03,0.23 -0.03,0.29 0,0.3 0.1,0.49 0.29,0.58 0.19,0.08 0.54,0.13 1.05,0.13l6.08 0c1.14,0 1.96,0.16 2.46,0.48 0.5,0.33 0.75,0.85 0.75,1.57 0,0.07 -0.01,0.14 -0.01,0.21 -0.01,0.08 -0.02,0.18 -0.04,0.3 -0.02,0.13 -0.04,0.29 -0.08,0.48 -0.04,0.2 -0.08,0.44 -0.13,0.72 -0.1,0.54 -0.25,0.99 -0.45,1.36 -0.2,0.37 -0.47,0.68 -0.8,0.92 -0.34,0.24 -0.75,0.41 -1.23,0.52 -0.48,0.11 -1.06,0.16 -1.73,0.16l-9.57 0z"/>
  <polygon class="fil3" points="104.06,40.37 106.09,30.07 108.06,30.07 106.02,40.37 "/>
  <path id="_1_0" class="fil3" d="M120.35 40.55c-0.23,0 -0.42,-0.03 -0.56,-0.1 -0.15,-0.06 -0.28,-0.15 -0.4,-0.27l-7.86 -7.88 -1.59 8.07 -1.83 0 1.91 -9.76c0.06,-0.26 0.2,-0.45 0.43,-0.56 0.23,-0.11 0.5,-0.16 0.79,-0.16 0.23,0 0.4,0.02 0.51,0.08 0.11,0.05 0.21,0.12 0.3,0.2l7.88 8.06 1.61 -8.16 1.86 0 -1.93 9.76c-0.06,0.29 -0.19,0.48 -0.4,0.58 -0.21,0.09 -0.45,0.14 -0.72,0.14z"/>
  <path id="_2_1" class="fil3" d="M139.49 40.37l1.51 -7.69 -7.78 7.52c-0.25,0.24 -0.56,0.35 -0.95,0.35 -0.39,0 -0.66,-0.11 -0.81,-0.35l-4.77 -7.52 -1.51 7.69 -1.8 0 1.92 -9.76c0.1,-0.48 0.49,-0.72 1.17,-0.72 0.23,0 0.41,0.02 0.53,0.08 0.12,0.05 0.22,0.15 0.31,0.29l5.32 8.39 8.62 -8.39c0.15,-0.14 0.29,-0.24 0.43,-0.29 0.14,-0.06 0.33,-0.08 0.55,-0.08 0.3,0 0.54,0.04 0.72,0.14 0.19,0.1 0.28,0.24 0.28,0.44l-1.93 9.9 -1.81 0z"/>
  <path id="_3_2" class="fil3" d="M147.59 40.37c-0.69,0 -1.28,-0.04 -1.76,-0.12 -0.48,-0.08 -0.87,-0.21 -1.18,-0.39 -0.3,-0.18 -0.52,-0.42 -0.66,-0.71 -0.13,-0.29 -0.2,-0.64 -0.2,-1.06 0,-0.09 0.01,-0.2 0.02,-0.33 0.01,-0.13 0.04,-0.35 0.09,-0.65 0.05,-0.31 0.13,-0.74 0.24,-1.29 0.11,-0.55 0.25,-1.28 0.43,-2.21 0.12,-0.64 0.3,-1.19 0.53,-1.64 0.24,-0.45 0.55,-0.82 0.94,-1.09 0.39,-0.28 0.87,-0.48 1.45,-0.61 0.58,-0.12 1.29,-0.19 2.13,-0.19l4.3 0c0.69,0 1.27,0.05 1.75,0.13 0.48,0.09 0.87,0.22 1.18,0.4 0.3,0.18 0.52,0.41 0.66,0.7 0.14,0.29 0.2,0.64 0.2,1.05 0,0.09 -0.01,0.2 -0.02,0.33 -0.02,0.13 -0.05,0.35 -0.1,0.66 -0.06,0.31 -0.13,0.73 -0.23,1.28 -0.11,0.55 -0.24,1.29 -0.43,2.21 -0.12,0.66 -0.3,1.2 -0.53,1.65 -0.23,0.45 -0.54,0.81 -0.93,1.09 -0.39,0.28 -0.88,0.48 -1.46,0.6 -0.58,0.13 -1.29,0.19 -2.12,0.19l-4.3 0zm7.36 -3.53c0.17,-0.9 0.31,-1.61 0.41,-2.13 0.1,-0.53 0.18,-0.93 0.23,-1.21 0.05,-0.27 0.08,-0.46 0.09,-0.57 0.01,-0.11 0.02,-0.19 0.02,-0.25 0,-0.43 -0.16,-0.72 -0.47,-0.87 -0.31,-0.14 -0.85,-0.22 -1.62,-0.22l-4.31 0c-0.48,0 -0.89,0.04 -1.21,0.1 -0.32,0.07 -0.59,0.18 -0.79,0.33 -0.2,0.16 -0.36,0.37 -0.48,0.62 -0.12,0.26 -0.22,0.58 -0.3,0.96 -0.18,0.92 -0.32,1.64 -0.43,2.18 -0.1,0.53 -0.17,0.94 -0.22,1.23 -0.06,0.29 -0.09,0.49 -0.1,0.6 -0.01,0.11 -0.01,0.2 -0.01,0.27 0,0.21 0.03,0.38 0.1,0.51 0.06,0.13 0.18,0.23 0.35,0.3 0.16,0.06 0.38,0.11 0.65,0.13 0.27,0.03 0.6,0.04 1,0.04l4.31 0c0.45,0 0.84,-0.03 1.15,-0.09 0.32,-0.06 0.59,-0.17 0.8,-0.32 0.22,-0.15 0.39,-0.35 0.52,-0.62 0.13,-0.26 0.23,-0.59 0.31,-0.99z"/>
  <path id="_4_3" class="fil3" d="M160.25 30.07l9.49 0c1.15,0 1.98,0.13 2.49,0.38 0.5,0.26 0.76,0.69 0.76,1.31 0,0.05 0,0.11 -0.01,0.17 -0.01,0.06 -0.01,0.14 -0.02,0.24 -0.02,0.11 -0.04,0.25 -0.07,0.41 -0.04,0.17 -0.08,0.38 -0.12,0.64 -0.11,0.61 -0.33,1.05 -0.64,1.31 -0.32,0.27 -0.69,0.44 -1.11,0.52 0.38,0.06 0.67,0.2 0.88,0.4 0.21,0.21 0.31,0.54 0.31,0.99 0,0.06 0,0.13 -0.01,0.2 0,0.07 -0.02,0.17 -0.03,0.29 -0.02,0.12 -0.04,0.27 -0.08,0.46 -0.03,0.2 -0.08,0.44 -0.13,0.73 -0.08,0.41 -0.22,0.76 -0.4,1.05 -0.19,0.29 -0.44,0.52 -0.77,0.69 -0.32,0.18 -0.71,0.31 -1.17,0.39 -0.46,0.08 -1.02,0.12 -1.66,0.12l-9.74 0 2.03 -10.3zm0.83 5.69l-0.61 3.13 7.79 0c0.61,0 1.06,-0.08 1.34,-0.23 0.28,-0.16 0.46,-0.41 0.53,-0.76 0.04,-0.26 0.08,-0.47 0.12,-0.64 0.03,-0.17 0.05,-0.3 0.07,-0.4 0.02,-0.1 0.03,-0.18 0.04,-0.23 0,-0.06 0,-0.1 0,-0.14 0,-0.32 -0.1,-0.51 -0.3,-0.6 -0.21,-0.08 -0.56,-0.13 -1.07,-0.13l-7.91 0zm0.85 -4.24l-0.58 2.91 7.91 0c0.55,0 0.93,-0.09 1.16,-0.28 0.23,-0.18 0.39,-0.47 0.47,-0.85 0.04,-0.23 0.08,-0.41 0.1,-0.55 0.02,-0.14 0.04,-0.24 0.05,-0.33 0.01,-0.08 0.02,-0.13 0.03,-0.17 0,-0.04 0,-0.06 0,-0.08 0,-0.25 -0.11,-0.43 -0.33,-0.52 -0.23,-0.09 -0.66,-0.13 -1.29,-0.13l-7.52 0z"/>
  <polygon id="_5_4" class="fil3" points="173.28,40.37 175.31,30.07 177.27,30.07 175.24,40.37 "/>
  <path id="_6_5" class="fil3" d="M181.63 40.37c-0.69,0 -1.28,-0.04 -1.76,-0.12 -0.48,-0.08 -0.87,-0.21 -1.17,-0.39 -0.31,-0.18 -0.53,-0.42 -0.66,-0.71 -0.14,-0.29 -0.21,-0.65 -0.21,-1.06 0,-0.36 0.05,-0.78 0.15,-1.25l1.34 -6.77 1.97 0 -1.34 6.77c-0.07,0.3 -0.1,0.57 -0.1,0.8 0,0.23 0.04,0.42 0.12,0.58 0.08,0.15 0.2,0.28 0.38,0.38 0.17,0.09 0.4,0.16 0.68,0.2 0.29,0.04 0.64,0.06 1.05,0.06l6.8 0 -0.29 1.51 -6.96 0z"/>
  <polygon id="_7" class="fil3" points="189.96,40.37 191.99,30.07 193.96,30.07 191.92,40.37 "/>
  <path id="_8" class="fil3" d="M206.45 37.82l-8.63 0 -2.31 2.55 -2.35 0 8.89 -9.7c0.2,-0.23 0.43,-0.42 0.68,-0.56 0.25,-0.15 0.57,-0.22 0.98,-0.22 0.4,0 0.69,0.07 0.88,0.22 0.19,0.14 0.35,0.33 0.48,0.56l5.03 9.7 -2.31 0 -1.34 -2.55zm-7.35 -1.42l6.64 0 -2.4 -4.66 -4.24 4.66z"/>
  <path id="_9" class="fil3" d="M221.01 40.37l-7.04 -3.76 -0.73 3.76 -1.95 0 2.03 -10.3 9.01 0c0.62,0 1.18,0.02 1.66,0.08 0.48,0.06 0.88,0.16 1.2,0.32 0.31,0.15 0.55,0.37 0.72,0.64 0.16,0.27 0.24,0.62 0.24,1.06 0,0.14 -0.01,0.32 -0.04,0.53 -0.03,0.22 -0.09,0.58 -0.19,1.08 -0.13,0.59 -0.31,1.07 -0.57,1.46 -0.25,0.39 -0.58,0.7 -1,0.93 -0.42,0.23 -0.92,0.4 -1.51,0.49 -0.58,0.1 -1.27,0.15 -2.05,0.15l-2.94 0 6.94 3.56 -3.78 0zm2.96 -6.59c0.04,-0.23 0.08,-0.42 0.11,-0.58 0.02,-0.15 0.05,-0.28 0.06,-0.38 0.02,-0.09 0.03,-0.17 0.04,-0.23 0,-0.06 0.01,-0.12 0.01,-0.17 0,-0.19 -0.04,-0.34 -0.11,-0.46 -0.06,-0.11 -0.18,-0.2 -0.34,-0.26 -0.17,-0.06 -0.38,-0.1 -0.65,-0.12 -0.28,-0.02 -0.61,-0.03 -1.02,-0.03l-7.1 0 -0.74 3.85 6.86 0c0.52,0 0.95,-0.03 1.29,-0.08 0.35,-0.06 0.62,-0.15 0.83,-0.27 0.21,-0.13 0.37,-0.3 0.49,-0.5 0.11,-0.21 0.2,-0.46 0.27,-0.77z"/>
  <polygon id="_10" class="fil3" points="226.52,40.37 228.56,30.07 230.52,30.07 228.49,40.37 "/>
  <path id="_11" class="fil3" d="M243.02 37.82l-8.64 0 -2.3 2.55 -2.35 0 8.89 -9.7c0.2,-0.23 0.43,-0.42 0.67,-0.56 0.25,-0.15 0.58,-0.22 0.98,-0.22 0.4,0 0.69,0.07 0.89,0.22 0.19,0.14 0.35,0.33 0.47,0.56l5.03 9.7 -2.3 0 -1.34 -2.55zm-7.35 -1.42l6.64 0 -2.41 -4.66 -4.23 4.66z"/>
  <rect class="fil4 str0" transform="matrix(0.0506419 -0.0337751 -0 0.0571333 45.3886 31.1653)" width="47.23" height="149.9"/>
  <rect class="fil0" x="52.91" y="31.04" width="5.05" height="5.05"/>
  <rect class="fil5 str1" x="53.32" y="31.47" width="1.83" height="1.83"/>
  <rect class="fil5 str1" x="55.64" y="31.47" width="1.83" height="1.83"/>
  <rect class="fil5 str1" x="55.64" y="33.71" width="1.83" height="1.83"/>
  <rect class="fil5 str1" x="53.32" y="33.71" width="1.83" height="1.83"/>
  <rect class="fil5 str1" x="60.6" y="23.71" width="2.19" height="3.41"/>
  <rect class="fil4 str0" transform="matrix(-0.0506419 -0.0337751 -0 0.0571333 65.2918 31.2664)" width="47.23" height="149.9"/>
  <polygon class="fil1 str2" points="64.62,28.23 69.6,31.19 65.43,31.21 55.35,25.06 45.27,31.21 41.05,31.19 47.66,27.27 55.33,22.59 55.35,22.63 55.37,22.59 "/>
  <path class="fil1" d="M47.85 39.36c0.06,0.03 0.65,-0.17 0.82,-0.21 3.06,-0.72 5.52,-0.06 8.37,0.99 1.55,0.57 3.29,1.36 4.84,1.89 0.55,0.19 1.14,0.38 1.73,0.52 0.89,0.21 1.07,0.2 1.95,0.31 1.19,0.14 4.51,-0.34 5.67,-0.73 0.55,-0.18 1.02,-0.42 1.51,-0.64 0.74,-0.32 1.46,-0.67 2.24,-1 0.27,-0.11 0.52,-0.22 0.78,-0.32 -0.03,-0.02 0.06,-0.06 -0.18,0.01l-0.63 0.18c-1.41,0.39 -3.52,0.76 -4.97,0.74 -0.16,0 -0.38,-0.01 -0.54,-0.01 -0.79,0.04 -2.26,-0.17 -3,-0.29 -0.85,-0.15 -1.69,-0.39 -2.51,-0.65 -0.29,-0.09 -0.56,-0.18 -0.83,-0.27 -1.07,-0.35 -2.2,-0.83 -3.24,-1.17 -1.23,-0.41 -2.09,-0.75 -3.41,-1 -1.35,-0.25 -2.62,-0.31 -3.97,-0.09 -0.59,0.1 -1.13,0.23 -1.7,0.42 -0.89,0.28 -1.77,0.68 -2.58,1.13 -0.11,0.05 -0.26,0.13 -0.35,0.19z"/>
  <polygon class="fil6" points="112.43,47.28 110.82,52.23 110.25,52.23 108.81,47.8 107.33,52.23 106.77,52.23 105.17,47.28 105.75,47.28 107.05,51.57 108.45,47.28 109.15,47.28 110.54,51.54 111.88,47.28 "/>
  <polygon id="_1_6" class="fil6" points="119.9,47.28 118.28,52.23 117.71,52.23 116.27,47.8 114.79,52.23 114.24,52.23 112.63,47.28 113.22,47.28 114.52,51.57 115.92,47.28 116.61,47.28 118,51.54 119.35,47.28 "/>
  <polygon id="_2_7" class="fil6" points="127.36,47.28 125.75,52.23 125.18,52.23 123.74,47.8 122.26,52.23 121.7,52.23 120.1,47.28 120.68,47.28 121.98,51.57 123.38,47.28 124.08,47.28 125.47,51.54 126.81,47.28 "/>
  <polygon id="_3_8" class="fil6" points="129.01,52.23 128.3,52.23 128.3,51.58 129.01,51.58 "/>
  <path id="_4_9" class="fil6" d="M130.19 50.74l0.57 -0.04c0.04,0.41 0.21,0.71 0.5,0.92 0.28,0.21 0.66,0.31 1.12,0.31 0.34,0 0.64,-0.04 0.87,-0.13 0.24,-0.08 0.43,-0.21 0.56,-0.38 0.12,-0.16 0.19,-0.34 0.19,-0.53 0,-0.5 -0.53,-0.82 -1.57,-0.98 -0.71,-0.11 -1.23,-0.27 -1.53,-0.49 -0.31,-0.22 -0.46,-0.52 -0.46,-0.9 0,-0.41 0.18,-0.73 0.54,-0.97 0.36,-0.23 0.81,-0.35 1.37,-0.35 0.62,0 1.1,0.11 1.45,0.34 0.34,0.23 0.53,0.58 0.56,1.05l-0.55 0.02c-0.07,-0.68 -0.54,-1.03 -1.42,-1.03 -0.4,0 -0.73,0.08 -1,0.24 -0.27,0.16 -0.4,0.38 -0.4,0.66 0,0.47 0.48,0.78 1.44,0.94 0.71,0.12 1.24,0.29 1.59,0.5 0.35,0.22 0.52,0.53 0.52,0.94 0,0.22 -0.04,0.42 -0.14,0.59 -0.09,0.17 -0.24,0.33 -0.43,0.46 -0.19,0.13 -0.42,0.23 -0.68,0.3 -0.26,0.07 -0.55,0.11 -0.87,0.11 -1.36,0 -2.11,-0.53 -2.23,-1.58z"/>
  <path id="_5_10" class="fil6" d="M141.02 49.76c0,0.77 -0.25,1.39 -0.75,1.86 -0.5,0.46 -1.18,0.7 -2.05,0.7 -0.58,0 -1.07,-0.11 -1.48,-0.31 -0.41,-0.21 -0.73,-0.5 -0.97,-0.89 -0.23,-0.38 -0.35,-0.83 -0.35,-1.36 0,-0.77 0.25,-1.39 0.75,-1.86 0.5,-0.47 1.18,-0.7 2.05,-0.7 0.58,0 1.08,0.1 1.49,0.31 0.42,0.21 0.73,0.51 0.96,0.89 0.23,0.38 0.35,0.83 0.35,1.36zm-0.6 0c0,-0.65 -0.19,-1.18 -0.59,-1.58 -0.39,-0.4 -0.93,-0.6 -1.61,-0.6 -0.69,0 -1.24,0.21 -1.62,0.61 -0.39,0.4 -0.59,0.92 -0.59,1.57 0,0.64 0.2,1.16 0.6,1.56 0.39,0.41 0.93,0.61 1.61,0.61 0.44,0 0.83,-0.09 1.15,-0.26 0.32,-0.18 0.58,-0.43 0.77,-0.76 0.19,-0.33 0.28,-0.71 0.28,-1.15z"/>
  <polygon id="_6_11" class="fil6" points="145.79,52.23 142.19,52.23 142.19,47.28 142.76,47.28 142.76,51.83 145.79,51.83 "/>
  <path id="_7_12" class="fil6" d="M151.73 52.23l-0.64 0 -0.78 -1.58 -2.8 0 -0.76 1.58 -0.61 0 2.44 -4.95 0.59 0 2.56 4.95zm-1.61 -1.96l-1.25 -2.5 -1.19 2.5 2.44 0z"/>
  <path id="_8_13" class="fil6" d="M157.32 52.23l-0.72 0 -0.81 -1.04c-0.34,-0.44 -0.58,-0.72 -0.72,-0.84 -0.15,-0.13 -0.32,-0.22 -0.51,-0.29 -0.19,-0.07 -0.41,-0.1 -0.65,-0.1l-0.86 0 0 2.27 -0.58 0 0 -4.95 2.53 0c0.39,0 0.71,0.05 0.99,0.16 0.26,0.11 0.47,0.26 0.61,0.45 0.15,0.2 0.22,0.43 0.22,0.71 0,0.79 -0.58,1.23 -1.74,1.32 0.43,0.18 0.79,0.47 1.1,0.86l1.14 1.45zm-4.27 -4.53l0 1.85 1.58 0c1.06,0 1.59,-0.31 1.59,-0.94 0,-0.14 -0.02,-0.26 -0.08,-0.37 -0.05,-0.11 -0.15,-0.21 -0.27,-0.3 -0.12,-0.09 -0.28,-0.15 -0.48,-0.19 -0.2,-0.04 -0.44,-0.05 -0.73,-0.05l-1.61 0z"/>
  <polygon id="_9_14" class="fil6" points="158.8,52.23 158.23,52.23 158.23,47.28 158.8,47.28 "/>
  <path id="_10_15" class="fil6" d="M160.05 50.74l0.57 -0.04c0.04,0.41 0.21,0.71 0.49,0.92 0.29,0.21 0.67,0.31 1.13,0.31 0.35,0 0.64,-0.04 0.88,-0.13 0.23,-0.08 0.42,-0.21 0.55,-0.38 0.12,-0.16 0.19,-0.34 0.19,-0.53 0,-0.5 -0.52,-0.82 -1.57,-0.98 -0.71,-0.11 -1.22,-0.27 -1.53,-0.49 -0.31,-0.22 -0.47,-0.52 -0.47,-0.9 0,-0.41 0.19,-0.73 0.55,-0.97 0.35,-0.23 0.81,-0.35 1.37,-0.35 0.62,0 1.1,0.11 1.45,0.34 0.34,0.23 0.53,0.58 0.56,1.05l-0.55 0.02c-0.07,-0.68 -0.54,-1.03 -1.42,-1.03 -0.4,0 -0.73,0.08 -1,0.24 -0.27,0.16 -0.4,0.38 -0.4,0.66 0,0.47 0.48,0.78 1.44,0.94 0.71,0.12 1.24,0.29 1.59,0.5 0.35,0.22 0.52,0.53 0.52,0.94 0,0.22 -0.04,0.42 -0.14,0.59 -0.09,0.17 -0.24,0.33 -0.43,0.46 -0.19,0.13 -0.42,0.23 -0.68,0.3 -0.26,0.07 -0.55,0.11 -0.87,0.11 -1.36,0 -2.11,-0.53 -2.23,-1.58z"/>
  <polygon id="_11_16" class="fil6" points="166.26,52.23 165.69,52.23 165.69,47.28 166.26,47.28 "/>
  <path id="_12" class="fil6" d="M167.86 52.23l0 -4.95 2.31 0c0.58,0 1.06,0.11 1.44,0.34 0.39,0.22 0.67,0.52 0.84,0.9 0.17,0.37 0.26,0.77 0.26,1.21 0,0.79 -0.22,1.4 -0.67,1.84 -0.44,0.44 -1.07,0.66 -1.87,0.66l-2.31 0zm0.57 -4.53l0 4.12 1.41 0c0.35,0 0.65,-0.03 0.89,-0.07 0.25,-0.05 0.48,-0.16 0.7,-0.33 0.23,-0.17 0.4,-0.4 0.51,-0.68 0.12,-0.29 0.18,-0.64 0.18,-1.05 0,-1.33 -0.76,-1.99 -2.28,-1.99l-1.41 0z"/>
  <polygon id="_13" class="fil6" points="178.51,52.23 177.91,52.23 174.44,48.01 174.49,52.23 173.92,52.23 173.92,47.28 174.49,47.28 177.99,51.55 177.95,47.28 178.51,47.28 "/>
  <polygon id="_14" class="fil6" points="180.79,52.23 180.08,52.23 180.08,51.58 180.79,51.58 "/>
  <path id="_15" class="fil6" d="M187.29 50.68c-0.4,1.09 -1.23,1.64 -2.5,1.64 -0.42,0 -0.8,-0.06 -1.13,-0.17 -0.33,-0.11 -0.61,-0.27 -0.84,-0.49 -0.23,-0.22 -0.42,-0.5 -0.56,-0.84 -0.14,-0.33 -0.21,-0.68 -0.21,-1.06 0,-0.75 0.25,-1.37 0.75,-1.84 0.5,-0.48 1.17,-0.72 2.02,-0.72 0.56,0 1.04,0.11 1.45,0.35 0.4,0.23 0.71,0.6 0.94,1.1l-0.55 0.12c-0.33,-0.79 -0.93,-1.18 -1.81,-1.18 -0.67,0 -1.21,0.2 -1.61,0.61 -0.4,0.42 -0.59,0.94 -0.59,1.57 0,0.71 0.2,1.25 0.6,1.61 0.4,0.37 0.9,0.55 1.52,0.55 1,0 1.67,-0.46 2,-1.37l0.52 0.12z"/>
  <path id="_16" class="fil6" d="M193.74 49.76c0,0.77 -0.25,1.39 -0.75,1.86 -0.5,0.46 -1.18,0.7 -2.05,0.7 -0.58,0 -1.07,-0.11 -1.48,-0.31 -0.41,-0.21 -0.73,-0.5 -0.97,-0.89 -0.23,-0.38 -0.35,-0.83 -0.35,-1.36 0,-0.77 0.25,-1.39 0.75,-1.86 0.5,-0.47 1.18,-0.7 2.05,-0.7 0.58,0 1.08,0.1 1.49,0.31 0.42,0.21 0.73,0.51 0.96,0.89 0.23,0.38 0.35,0.83 0.35,1.36zm-0.6 0c0,-0.65 -0.19,-1.18 -0.59,-1.58 -0.39,-0.4 -0.93,-0.6 -1.61,-0.6 -0.69,0 -1.24,0.21 -1.62,0.61 -0.39,0.4 -0.59,0.92 -0.59,1.57 0,0.64 0.2,1.16 0.6,1.56 0.39,0.41 0.93,0.61 1.61,0.61 0.44,0 0.83,-0.09 1.15,-0.26 0.32,-0.18 0.58,-0.43 0.77,-0.76 0.19,-0.33 0.28,-0.71 0.28,-1.15z"/>
  <polygon id="_17" class="fil6" points="200.43,52.23 199.86,52.23 199.96,47.79 197.9,52.23 197.43,52.23 195.4,47.79 195.49,52.23 194.93,52.23 194.93,47.28 195.73,47.28 197.66,51.57 199.62,47.28 200.43,47.28 "/>
 </g>
</svg>
